<?xml version="1.0" encoding="UTF-8"?>
<svg width="1003px" height="1000px" viewBox="0 0 1003 1000" version="1.1" xmlns="http://www.w3.org/2000/svg" xmlns:xlink="http://www.w3.org/1999/xlink">
    <!-- Generator: Sketch 55.1 (78136) - https://sketchapp.com -->
    <title>编组 20</title>
    <desc>Created with Sketch.</desc>
    <defs>
        <linearGradient x1="35.9218931%" y1="57.2900214%" x2="53.3233655%" y2="40.0039065%" id="linearGradient-1">
            <stop stop-color="#ECF1FF" offset="0%"></stop>
            <stop stop-color="#FFFFFF" offset="100%"></stop>
        </linearGradient>
        <path d="M232.880482,102.972967 C231.966517,76.7854601 163.683213,82.6884658 137.342944,85.2148007 C111.002303,87.7411355 108.610755,51.8663515 131.337369,46.5337894 C154.06361,41.2012272 195.276072,43.9531735 216.629311,39.0307781 C237.98255,34.1083827 210.971468,7.70908152 240.066331,4.52703258 C269.161193,1.34518104 329.3219,4.29115711 347.256828,3.64472015 C375.428015,2.62937 389.881509,36.5182602 340.527028,38.0560894 C326.916532,38.480073 324.186216,68.5864682 370.127615,60.3166149 C398.957663,55.1269598 455.523391,55.0071469 467.290644,68.2568347 C474.042107,75.8589333 471.702476,96.2827884 460.095457,107.560794 C451.473111,115.938814 424.052295,117.572375 413.310685,119.508923 C388.109979,124.052733 393.091779,148.435151 401.684618,153.455647 C422.018938,165.335678 477.826452,142.914678 479.322337,175.537144 C479.983439,189.95259 429.205533,192.27996 408.384911,192.103892 C357.320154,191.672211 323.768638,196.21839 321.414068,178.812162 C319.050532,161.338033 353.14587,173.132399 351.464727,151.650163 C350.586245,140.424465 352.940816,116.570842 331.066165,117.822857 C361.014858,116.108566 234.114914,138.341852 232.880482,102.972967 Z" id="path-2"></path>
        <filter x="-3.0%" y="-8.3%" width="107.8%" height="115.7%" filterUnits="objectBoundingBox" id="filter-3">
            <feGaussianBlur stdDeviation="12.5" in="SourceAlpha" result="shadowBlurInner1"></feGaussianBlur>
            <feOffset dx="0" dy="-14" in="shadowBlurInner1" result="shadowOffsetInner1"></feOffset>
            <feComposite in="shadowOffsetInner1" in2="SourceAlpha" operator="arithmetic" k2="-1" k3="1" result="shadowInnerInner1"></feComposite>
            <feColorMatrix values="0 0 0 0 0.788056219   0 0 0 0 0.827193393   0 0 0 0 0.897640306  0 0 0 0.337126359 0" type="matrix" in="shadowInnerInner1"></feColorMatrix>
        </filter>
        <linearGradient x1="35.9218931%" y1="57.6602447%" x2="53.3233655%" y2="39.4962553%" id="linearGradient-4">
            <stop stop-color="#ECF1FF" offset="0%"></stop>
            <stop stop-color="#FFFFFF" offset="100%"></stop>
        </linearGradient>
        <path d="M612.739026,257.150367 C612.80665,230.904961 544.428197,234.254523 518.041632,235.795912 C491.654701,237.337499 490.610573,201.340653 513.494658,196.855058 C536.379111,192.369265 577.412872,196.668109 598.910667,192.541481 C620.408829,188.414854 594.435726,160.979461 623.596342,158.884989 C652.75659,156.790517 712.696385,161.993647 730.622607,162.018733 C758.779889,162.058154 771.938624,196.519385 722.617256,196.208997 C709.016026,196.123387 705.163667,226.154372 751.330231,219.598794 C780.30194,215.484909 836.767923,217.484612 848.017385,231.187277 C854.471795,239.049311 851.37212,259.403717 839.364462,270.256944 C830.44435,278.319666 803.012923,278.926903 792.218453,280.462916 C766.894026,284.066124 770.954034,308.657455 779.343444,314.004332 C799.195479,326.657173 855.739744,306.307346 856.012077,339.015155 C856.132256,353.468604 805.360282,353.895064 784.584667,352.938615 C733.630034,350.592886 699.969855,353.885906 698.271171,336.375761 C696.565872,318.797129 730.157325,331.880013 729.283359,310.315314 C728.82653,299.046577 732.069538,275.259586 710.188051,275.693015 C740.146188,275.099714 612.647513,292.597315 612.739026,257.150367 Z" id="path-5"></path>
        <filter x="-3.3%" y="-8.4%" width="108.2%" height="117.5%" filterUnits="objectBoundingBox" id="filter-6">
            <feGaussianBlur stdDeviation="12.5" in="SourceAlpha" result="shadowBlurInner1"></feGaussianBlur>
            <feOffset dx="0" dy="-14" in="shadowBlurInner1" result="shadowOffsetInner1"></feOffset>
            <feComposite in="shadowOffsetInner1" in2="SourceAlpha" operator="arithmetic" k2="-1" k3="1" result="shadowInnerInner1"></feComposite>
            <feColorMatrix values="0 0 0 0 0.788056219   0 0 0 0 0.827193393   0 0 0 0 0.897640306  0 0 0 0.337126359 0" type="matrix" in="shadowInnerInner1"></feColorMatrix>
        </filter>
        <linearGradient x1="46.1743534%" y1="-9.21335019%" x2="60.4350567%" y2="50%" id="linearGradient-7">
            <stop stop-color="#CFDDF3" offset="0%"></stop>
            <stop stop-color="#A1B8E3" offset="100%"></stop>
        </linearGradient>
        <linearGradient x1="50%" y1="0%" x2="50%" y2="100%" id="linearGradient-8">
            <stop stop-color="#CFDDF3" offset="0%"></stop>
            <stop stop-color="#A1B8E3" offset="100%"></stop>
        </linearGradient>
        <linearGradient x1="50%" y1="0%" x2="50%" y2="100%" id="linearGradient-9">
            <stop stop-color="#CFDDF3" offset="0%"></stop>
            <stop stop-color="#A1B8E3" offset="100%"></stop>
        </linearGradient>
        <linearGradient x1="50%" y1="0%" x2="50%" y2="100%" id="linearGradient-10">
            <stop stop-color="#CFDDF3" offset="0%"></stop>
            <stop stop-color="#A1B8E3" offset="100%"></stop>
        </linearGradient>
        <linearGradient x1="50%" y1="0%" x2="50%" y2="100%" id="linearGradient-11">
            <stop stop-color="#CFDDF3" offset="0%"></stop>
            <stop stop-color="#A1B8E3" offset="100%"></stop>
        </linearGradient>
        <linearGradient x1="68.0406028%" y1="-30.2653238%" x2="50%" y2="100%" id="linearGradient-12">
            <stop stop-color="#CFDDF3" offset="0%"></stop>
            <stop stop-color="#A1B8E3" offset="100%"></stop>
        </linearGradient>
        <linearGradient x1="68.0301728%" y1="-30.2653238%" x2="50%" y2="100%" id="linearGradient-13">
            <stop stop-color="#CFDDF3" offset="0%"></stop>
            <stop stop-color="#A1B8E3" offset="100%"></stop>
        </linearGradient>
        <linearGradient x1="68.0301601%" y1="-30.2653238%" x2="50%" y2="100%" id="linearGradient-14">
            <stop stop-color="#CFDDF3" offset="0%"></stop>
            <stop stop-color="#A1B8E3" offset="100%"></stop>
        </linearGradient>
        <linearGradient x1="68.0399532%" y1="-30.2653238%" x2="50%" y2="100%" id="linearGradient-15">
            <stop stop-color="#CFDDF3" offset="0%"></stop>
            <stop stop-color="#A1B8E3" offset="100%"></stop>
        </linearGradient>
        <linearGradient x1="68.0380898%" y1="-30.2653238%" x2="50%" y2="100%" id="linearGradient-16">
            <stop stop-color="#CFDDF3" offset="0%"></stop>
            <stop stop-color="#A1B8E3" offset="100%"></stop>
        </linearGradient>
        <linearGradient x1="68.0366346%" y1="-30.2653238%" x2="50%" y2="100%" id="linearGradient-17">
            <stop stop-color="#CFDDF3" offset="0%"></stop>
            <stop stop-color="#A1B8E3" offset="100%"></stop>
        </linearGradient>
        <linearGradient x1="12.0299736%" y1="46.9675911%" x2="20.148299%" y2="52.5939764%" id="linearGradient-18">
            <stop stop-color="#FFFFFF" offset="0%"></stop>
            <stop stop-color="#D6E3FA" offset="100%"></stop>
        </linearGradient>
        <linearGradient x1="50%" y1="100%" x2="50%" y2="-97.5239132%" id="linearGradient-19">
            <stop stop-color="#FFFFFF" offset="0%"></stop>
            <stop stop-color="#D6E3FA" offset="100%"></stop>
        </linearGradient>
        <filter x="-75.9%" y="-1366.1%" width="251.7%" height="2832.1%" filterUnits="objectBoundingBox" id="filter-20">
            <feGaussianBlur stdDeviation="31.1272321 0" in="SourceGraphic"></feGaussianBlur>
        </filter>
        <linearGradient x1="46.1743534%" y1="-9.21335019%" x2="60.4350567%" y2="50%" id="linearGradient-21">
            <stop stop-color="#CFDDF3" offset="0%"></stop>
            <stop stop-color="#A1B8E3" offset="100%"></stop>
        </linearGradient>
        <linearGradient x1="50%" y1="0%" x2="50%" y2="100%" id="linearGradient-22">
            <stop stop-color="#CFDDF3" offset="0%"></stop>
            <stop stop-color="#A1B8E3" offset="100%"></stop>
        </linearGradient>
        <linearGradient x1="50%" y1="0%" x2="50%" y2="100%" id="linearGradient-23">
            <stop stop-color="#CFDDF3" offset="0%"></stop>
            <stop stop-color="#A1B8E3" offset="100%"></stop>
        </linearGradient>
        <linearGradient x1="50%" y1="0%" x2="50%" y2="100%" id="linearGradient-24">
            <stop stop-color="#CFDDF3" offset="0%"></stop>
            <stop stop-color="#A1B8E3" offset="100%"></stop>
        </linearGradient>
        <linearGradient x1="92.0924801%" y1="16.0556086%" x2="-46.0292161%" y2="16.0556093%" id="linearGradient-25">
            <stop stop-color="#D0DCF1" offset="0%"></stop>
            <stop stop-color="#FFFFFF" stop-opacity="0" offset="100%"></stop>
        </linearGradient>
        <linearGradient x1="92.0924801%" y1="16.0556086%" x2="-46.0292161%" y2="16.0556093%" id="linearGradient-26">
            <stop stop-color="#D0DCF1" offset="0%"></stop>
            <stop stop-color="#FFFFFF" stop-opacity="0" offset="100%"></stop>
        </linearGradient>
        <linearGradient x1="92.0924801%" y1="16.0556086%" x2="-46.0292161%" y2="16.0556093%" id="linearGradient-27">
            <stop stop-color="#D0DCF1" offset="0%"></stop>
            <stop stop-color="#FFFFFF" stop-opacity="0" offset="100%"></stop>
        </linearGradient>
        <linearGradient x1="92.0924801%" y1="16.0556086%" x2="-46.0292161%" y2="16.0556093%" id="linearGradient-28">
            <stop stop-color="#D0DCF1" offset="0%"></stop>
            <stop stop-color="#FFFFFF" stop-opacity="0" offset="100%"></stop>
        </linearGradient>
    </defs>
    <g id="1000个上传" stroke="none" stroke-width="1" fill="none" fill-rule="evenodd">
        <g id="11" transform="translate(-3806.000000, -2449.000000)">
            <g id="编组-20" transform="translate(3806.333333, 2449.000000)">
                <rect id="矩形复制-9" x="2" y="0" width="1000" height="1000"></rect>
                <g id="编组-114" transform="translate(0.000000, 196.000000)">
                    <g id="编组-5">
                        <g id="cloud" opacity="0.300000012" transform="translate(294.444444, 98.692666) scale(-1, 1) translate(-294.444444, -98.692666) ">
                            <use fill="url(#linearGradient-1)" fill-rule="evenodd" xlink:href="#path-2"></use>
                            <use fill="black" fill-opacity="1" filter="url(#filter-3)" xlink:href="#path-2"></use>
                        </g>
                        <g id="cloud" opacity="0.200000003" transform="translate(673.504274, 255.062864) scale(-1, 1) translate(-673.504274, -255.062864) ">
                            <use fill="url(#linearGradient-4)" fill-rule="evenodd" xlink:href="#path-5"></use>
                            <use fill="black" fill-opacity="1" filter="url(#filter-6)" xlink:href="#path-5"></use>
                        </g>
                        <g id="tree" opacity="0.205803571" transform="translate(608.000437, 432.442298) rotate(-1.000000) translate(-608.000437, -432.442298) translate(564.500437, 322.442298)">
                            <path d="M67.0398031,188.844912 C62.1409564,193.177732 43.510671,184.512093 36.1241804,171.061435 C28.7376899,157.610777 42.4396424,152.823041 23.8025539,131.310475 C5.16546538,109.797909 -6.79316559,101.55905 4.51696587,66.0993828 C15.8270973,30.6397159 0.202254913,10.9328856 20.8475074,1.68164556 C41.49276,-7.56959451 53.382291,23.1342311 51.014173,50.1413489 C48.646055,77.1484667 53.4896456,82.7456169 73.683377,79.9470418 C93.8771084,77.1484667 76.8519189,116.797315 76.8519189,125.451904 C76.8519189,134.106494 89.0966676,150.181333 86.5564663,162.275344 C84.0162651,174.369356 71.9386498,184.512093 67.0398031,188.844912 Z" id="leaves" fill="url(#linearGradient-7)"></path>
                            <path d="M55.2451922,151.142178 C55.2451922,144.499557 56.9237925,123.802851 66.0552013,111.198434" id="branch" stroke="url(#linearGradient-8)" stroke-width="6" stroke-linecap="round"></path>
                            <path d="M13.1841495,112.382268 C13.1841495,105.739647 31.8379999,101.076171 40.9694087,88.4717542" id="branch" stroke="url(#linearGradient-9)" stroke-width="6" stroke-linecap="round" transform="translate(27.076779, 100.427011) scale(-1, 1) translate(-27.076779, -100.427011) "></path>
                            <path d="M78.0418269,219.957695 C78.0418269,217.131503 73.1735706,204.391491 68.5216424,189.630812 C53.9542474,143.408121 30.4724899,86.4898402 30.4724899,47.0478018" id="stem" stroke="url(#linearGradient-10)" stroke-width="6" stroke-linecap="round"></path>
                        </g>
                        <g id="plant" transform="translate(265.589165, 423.183309) rotate(-7.000000) translate(-265.589165, -423.183309) translate(183.589165, 289.683309)">
                            <path d="M39.6164038,266.928122 C39.6164038,232.16432 68.6814549,124.581514 107.913692,65.7147528" id="stem" stroke="url(#linearGradient-11)" stroke-width="6" stroke-linecap="round"></path>
                            <path d="M73.929883,86.3229378 C80.6510686,76.8807113 84.0111746,66.3354632 84.0102009,54.6871935 C84.0087399,37.2147888 79.4932597,23.0497634 73.9245932,23.0497634 C68.3559267,23.0497634 63.8428147,37.2131031 63.8442751,54.6855077 C63.8452492,66.3337775 67.2071185,76.8795875 73.929883,86.3229378 Z" id="leaf" fill="url(#linearGradient-12)" transform="translate(73.927238, 54.686351) rotate(-30.000000) translate(-73.927238, -54.686351) "></path>
                            <path d="M131.417259,118.605659 C138.138405,109.16146 141.498977,98.6143839 141.498977,86.9644302 C141.498977,69.4894996 136.985547,55.3233372 131.417685,55.3233372 C125.849824,55.3233372 121.335967,69.4896354 121.335967,86.964566 C121.335967,98.6145197 124.696398,109.161551 131.417259,118.605659 Z" id="leaf" fill="url(#linearGradient-13)" transform="translate(131.417472, 86.964498) rotate(88.000000) translate(-131.417472, -86.964498) "></path>
                            <path d="M112.641501,164.493884 C119.362432,155.049751 122.722898,144.502707 122.722898,132.852751 C122.722898,115.377817 118.209148,101.211551 112.641288,101.211551 C107.073427,101.211551 102.559891,115.37775 102.559891,132.852683 C102.559891,144.502639 105.920428,155.049706 112.641501,164.493884 Z" id="leaf" fill="url(#linearGradient-14)" transform="translate(112.641395, 132.852717) rotate(91.000000) translate(-112.641395, -132.852717) "></path>
                            <path d="M97.3409345,208.99347 C104.061866,199.549337 107.422331,189.002293 107.422331,177.352337 C107.422331,159.877403 102.908582,145.711137 97.3407213,145.711137 C91.7728608,145.711137 87.2593246,159.877335 87.2593246,177.352269 C87.2593246,189.002225 90.6198612,199.549292 97.3409345,208.99347 Z" id="leaf" fill="url(#linearGradient-14)" transform="translate(97.340828, 177.352303) rotate(91.000000) translate(-97.340828, -177.352303) "></path>
                            <path d="M128.46788,64.1931286 C135.190627,54.7496624 138.552515,44.203742 138.553542,32.5553674 C138.555083,15.0828055 134.042076,0.919384551 128.47346,0.919384551 C122.904844,0.919384551 118.389339,15.0845837 118.387798,32.5571457 C118.386771,44.2055203 121.746798,54.7508479 128.46788,64.1931286 Z" id="leaf" fill="url(#linearGradient-15)" transform="translate(128.470670, 32.556257) rotate(33.000000) translate(-128.470670, -32.556257) "></path>
                            <path d="M48.9134273,134.868783 C55.6342655,125.426308 58.994128,114.880733 58.9930146,103.232058 C58.991344,85.7590446 54.4758511,71.5934048 48.9073786,71.5934048 C43.3389061,71.5934048 38.8261212,85.757117 38.8277911,103.23013 C38.8289049,114.878806 42.1907837,125.425023 48.9134273,134.868783 Z" id="leaf" fill="url(#linearGradient-16)" transform="translate(48.910403, 103.231094) rotate(-41.000000) translate(-48.910403, -103.231094) "></path>
                            <path d="M30.1373717,183.538745 C36.8580677,174.096084 40.217855,163.550299 40.2167334,151.901388 C40.2150505,134.428023 35.6996386,120.26209 30.1312784,120.26209 C24.5629182,120.26209 20.0502344,134.426081 20.0519165,151.899446 C20.0530386,163.548357 23.414857,174.09479 30.1373717,183.538745 Z" id="leaf" fill="url(#linearGradient-17)" transform="translate(30.134325, 151.900417) rotate(-47.000000) translate(-30.134325, -151.900417) "></path>
                        </g>
                        <g id="plant" opacity="0.200000003" transform="translate(181.313122, 467.487458) rotate(-38.000000) translate(-181.313122, -467.487458) translate(114.813122, 359.487458)">
                            <path d="M32.0302839,215.814226 C32.0302839,187.707322 55.529687,100.725479 87.2493678,53.1310767" id="stem" stroke="#A1B8E3" stroke-width="6" stroke-linecap="round"></path>
                            <path d="M59.7730969,69.7930135 C65.207247,62.158873 67.9239284,53.6329277 67.9231411,44.2151777 C67.92196,30.0885527 64.2711461,18.6359789 59.76882,18.6359789 C55.2664939,18.6359789 51.6175949,30.0871897 51.6187756,44.2138147 C51.6195632,53.6315648 54.3376703,62.1579643 59.7730969,69.7930135 Z" id="leaf" fill="#A1B8E3" transform="translate(59.770958, 44.214496) rotate(-30.000000) translate(-59.770958, -44.214496) "></path>
                            <path d="M106.252252,95.893937 C111.68637,88.2582018 114.403429,79.7307785 114.403429,70.311667 C114.403429,56.1829997 110.754272,44.7295067 106.252597,44.7295067 C101.750922,44.7295067 98.1014204,56.1831094 98.1014204,70.3117767 C98.1014204,79.7308883 100.818364,88.258275 106.252252,95.893937 Z" id="leaf" fill="#A1B8E3" transform="translate(106.252425, 70.311722) rotate(88.000000) translate(-106.252425, -70.311722) "></path>
                            <path d="M91.071852,132.995055 C96.5057963,125.359373 99.2227684,116.831976 99.2227684,107.412863 C99.2227684,93.2841928 95.5733541,81.8306155 91.0716796,81.8306155 C86.5700052,81.8306155 82.9207631,93.2841379 82.9207631,107.412808 C82.9207631,116.831921 85.6377928,125.359337 91.071852,132.995055 Z" id="leaf" fill="#A1B8E3" transform="translate(91.071766, 107.412835) rotate(91.000000) translate(-91.071766, -107.412835) "></path>
                            <path d="M78.7011811,168.973443 C84.1351254,161.337762 86.8520975,152.810364 86.8520975,143.391251 C86.8520975,129.262581 83.2026832,117.809004 78.7010087,117.809004 C74.1993342,117.809004 70.5500922,129.262527 70.5500922,143.391196 C70.5500922,152.81031 73.2671218,161.337725 78.7011811,168.973443 Z" id="leaf" fill="#A1B8E3" transform="translate(78.701095, 143.391224) rotate(91.000000) translate(-78.701095, -143.391224) "></path>
                            <path d="M103.867648,51.9008273 C109.30306,44.2656845 112.021182,35.7391957 112.022013,26.3213609 C112.023258,12.1946087 108.374445,0.74333219 103.872159,0.74333219 C99.3698736,0.74333219 95.7190401,12.1960464 95.7177941,26.3227986 C95.7169636,35.7406334 98.4335815,44.266643 103.867648,51.9008273 Z" id="leaf" fill="#A1B8E3" transform="translate(103.869903, 26.322080) rotate(33.000000) translate(-103.869903, -26.322080) "></path>
                            <path d="M39.5470263,109.042846 C44.9808955,101.408505 47.6973801,92.882295 47.6964799,83.464217 C47.6951292,69.3370999 44.0443052,57.8840294 39.5421359,57.8840294 C35.0399666,57.8840294 31.3913321,69.3355414 31.3926821,83.4626585 C31.3935827,92.8807365 34.1116974,101.407466 39.5470263,109.042846 Z" id="leaf" fill="#A1B8E3" transform="translate(39.544581, 83.463438) rotate(-41.000000) translate(-39.544581, -83.463438) "></path>
                            <path d="M24.3663856,148.393028 C29.8001399,140.758536 32.5165636,132.232156 32.5156568,122.813888 C32.5142962,108.686486 28.8635376,97.2331792 24.3614592,97.2331792 C19.8593807,97.2331792 16.2108278,108.684916 16.2121878,122.812318 C16.213095,132.230586 18.931161,140.757489 24.3663856,148.393028 Z" id="leaf" fill="#A1B8E3" transform="translate(24.363922, 122.813103) rotate(-47.000000) translate(-24.363922, -122.813103) "></path>
                        </g>
                        <path d="M0,583.677296 C52.6376009,563.678963 186.722852,516.107101 304.63436,516.107101 C422.545868,516.107101 568.711282,593.108665 663.036842,601.846819 C725.920548,607.672255 838.241601,612.602289 1000,616.63692 L1000,734 L0,734 C0,684.888168 0,634.7806 0,583.677296 Z" id="ground" fill="url(#linearGradient-18)" transform="translate(500.000000, 625.053551) scale(-1, 1) translate(-500.000000, -625.053551) "></path>
                        <path d="M0,583.677296 C52.6376009,563.678963 186.722852,516.107101 304.63436,516.107101 C422.545868,516.107101 568.711282,593.108665 663.036842,601.846819 C725.920548,607.672255 838.241601,612.602289 1000,616.63692 L1000,734 L0,734 C0,684.888168 0,634.7806 0,583.677296 Z" id="ground" fill="url(#linearGradient-19)"></path>
                        <ellipse id="shadow" fill="#8699BF" opacity="0.200000003" filter="url(#filter-20)" cx="705.128205" cy="566.521537" rx="61.5384615" ry="3.41792782"></ellipse>
                        <g id="tree" opacity="0.821875" transform="translate(701.612595, 399.177632) rotate(18.000000) translate(-701.612595, -399.177632) translate(637.612595, 237.677632)">
                            <path d="M98.1462717,276.468952 C90.9743601,282.812199 63.6996223,270.125704 52.8858002,250.433941 C42.071978,230.742177 62.1316364,223.732932 34.8469389,192.238535 C7.56224132,160.744138 -9.94519443,148.682449 6.61283803,96.7694965 C23.1708705,44.8565441 0.296101192,16.0057445 30.5207509,2.46192909 C60.7454006,-11.0818864 78.151674,33.8685143 74.6847493,73.4069348 C71.2178245,112.945355 78.3088412,121.139583 107.872464,117.042469 C137.436087,112.945355 112.511209,170.991269 112.511209,183.661588 C112.511209,196.331907 130.437521,219.865471 126.718667,237.571104 C122.999812,255.276736 105.318183,270.125704 98.1462717,276.468952 Z" id="leaves" fill="url(#linearGradient-21)"></path>
                            <path d="M80.8789613,221.272149 C80.8789613,211.547352 83.3364322,181.247374 96.7048146,162.794508" id="branch" stroke="url(#linearGradient-22)" stroke-width="6" stroke-linecap="round"></path>
                            <path d="M19.3015949,164.52764 C19.3015949,154.802843 46.6108319,147.975514 59.9792143,129.522648" id="branch" stroke="url(#linearGradient-23)" stroke-width="6" stroke-linecap="round" transform="translate(39.640405, 147.025144) scale(-1, 1) translate(-39.640405, -147.025144) "></path>
                            <path d="M114.253235,322.018065 C114.253235,317.88052 107.126107,299.229143 100.315685,277.619509 C78.9890182,209.949489 44.6117253,126.621126 44.6117253,68.8779819" id="stem" stroke="url(#linearGradient-24)" stroke-width="6" stroke-linecap="round"></path>
                        </g>
                        <path d="M331.623932,657.951106 L605.982906,684.840433 C603.733331,690.957838 597.80144,694.931792 591.288203,694.684861 L331.623932,684.840433" id="shadow" fill="url(#linearGradient-25)" opacity="0.5"></path>
                        <polyline id="shadow" fill="url(#linearGradient-26)" opacity="0.5" points="226.336453 692.984866 488.888889 703.701632 488.888889 718.472818 225.641026 725.45518"></polyline>
                    </g>
                    <g id="编组-105" transform="translate(132.000000, 179.000000)">
                        <path d="M110.329196,92.7608846 C110.329196,92.7608846 100.772199,90.3589186 96.6610888,97.2979314 C94.5233383,100.95605 94.3771134,105.445818 96.2723096,109.235215 C98.1675059,113.024612 101.847998,115.601523 106.057912,116.086643 C115.881864,116.780544 179.630769,107.332811 179.630769,107.332811 L172.903498,38.4230769 L161.317642,39.4372403 L160.783731,87.4765595 L110.329196,92.7608846 Z" id="路径" fill="#17173F" fill-rule="nonzero"></path>
                        <ellipse id="椭圆形" fill="url(#linearGradient-27)" opacity="0.5" cx="139" cy="525.115385" rx="139" ry="29.8846154"></ellipse>
                        <polygon id="路径" fill="#17173F" fill-rule="nonzero" points="175.551963 495.586896 188.831174 510.139467 216.032137 514.214186 219.833846 525.115385 151.403077 524.004097 159.220677 493.523077"></polygon>
                        <polygon id="路径" fill="#FFFFFF" fill-rule="nonzero" points="219.833846 525.115385 217.852674 519.42633 153.49134 515.723077 151.403077 523.988308"></polygon>
                        <polygon id="路径" fill="#FFD0BB" fill-rule="nonzero" points="175.353846 465.30688 173.227312 495.230769 161.667692 493.777631 161.667692 463.638462"></polygon>
                        <polygon id="路径" fill="#FFD0BB" fill-rule="nonzero" points="94.9476923 464.312551 81.8192254 504.623077 71.8523077 501.542694 81.1761985 460.223077"></polygon>
                        <polygon id="路径" fill="#1B318B" fill-rule="nonzero" points="180.3598 211.753846 187.329231 356.061861 177.912519 479.861538 157.855453 479.861538 160.994357 359.863668 132.584615 211.753846"></polygon>
                        <path d="M117.455,197.238462 C105.769169,215.334241 104.90777,238.371984 115.209615,257.290298 L108.42,350.710207 L72.7076923,479.048949 L95.1615385,484.984615 L136.808077,353.865201 L180.486154,212.264789 L117.455,197.238462 Z" id="路径" fill="#1B318B" fill-rule="nonzero"></path>
                        <path d="M147.126154,319.338462 L168.510769,250.176923" id="路径" stroke="#17173F" stroke-width="0.5"></path>
                        <polygon id="路径" fill="#17173F" fill-rule="nonzero" points="86.8906944 494.963942 99.1910446 510.493269 126.101418 516.416827 129.163077 527.676923 60.7323077 521.913462 70.6692718 491.815385"></polygon>
                        <polygon id="路径" fill="#FFFFFF" fill-rule="nonzero" points="129.163077 527.676923 127.605391 522.201879 63.471687 514.015385 60.7323077 522.045449"></polygon>
                        <path d="M80.3636627,114.725454 C73.9540473,117.623711 65.336077,118.37511 60.865505,113.007968 C56.3949329,107.640826 58.4417008,100.180499 60.1652949,93.6862571 C63.5387335,80.798968 65.3470864,67.5546803 65.5515263,54.2377631 C65.5515263,40.7125651 64.5820046,26.2212816 71.5302432,14.5745834 C75.1928805,8.34869863 82.6258799,3.19624227 89.3586692,5.82614187 C91.8735685,6.99067545 94.0715591,8.73915502 95.7682845,10.9249268 C115.409234,33.9647191 118.466982,66.7941127 103.416733,93.0422 C98.1052277,102.423137 90.0684893,109.982332 80.3636627,114.725454 L80.3636627,114.725454 Z" id="路径" fill="#17173F" fill-rule="nonzero"></path>
                        <path d="M114.991645,70.8692308 C114.991645,70.8692308 142.968841,72.1490961 152.240977,91.3470767 C161.513113,110.545057 180.486154,212.081043 180.486154,212.081043 L107.970548,222 L95.8578158,153.740514 C95.8578158,153.740514 70.7748125,99.6662016 86.3712953,86.4942538 C94.9145027,79.6529954 104.60286,74.3637236 114.991645,70.8692308 Z" id="路径" fill="#FF7AA7" fill-rule="nonzero"></path>
                        <path d="M77.5519565,43.6722977 C75.0893118,40.8540017 73.4447165,37.4253674 72.7937602,33.7524623 C72.4618371,29.8887021 73.0931742,26.0032827 74.6321542,22.4384878 C75.9671454,18.3431498 78.1391139,14.5646891 81.012463,11.3389963 C83.9162659,8.11010896 88.0092046,6.17729974 92.3672498,5.97692308 C97.2847891,6.08869781 101.915207,8.29672175 105.073797,12.0360658 C108.192354,15.7402616 110.610297,19.9728032 112.211091,24.5296964 C115.88788,33.6988416 120.592005,50.7502344 108.912796,56.434032 C97.2335869,62.1178296 84.0404061,51.7154076 77.5519565,43.6722977 Z" id="路径" fill="#FFD0BB" fill-rule="nonzero"></path>
                        <path d="M93.1522924,26.9150343 C91.0467721,34.3121284 87.6835546,41.3072669 83.2044598,47.6054799 C81.7447234,49.7806293 79.5280868,52.114936 76.933,50.8947303 C75.7486178,50.1610865 74.7796327,49.1370948 74.121656,47.9237945 C68.0464641,38.8276691 66.0887329,27.6661377 68.7152252,17.1003357 C70.9336519,7.99854099 78.663163,1.19542244 88.1243118,0.0174549235 C95.9095721,-0.725279023 94.2335786,22.4586306 93.1522924,26.9150343 Z" id="路径" fill="#17173F" fill-rule="nonzero"></path>
                        <path d="M108.694766,66.4383823 C112.089434,72.1427795 117.13765,76.6898425 123.175385,79.4814616 C114.793448,83.3656468 105.964056,86.2085301 96.8858477,87.9461538 C98.5581101,82.30296 98.7421438,76.3255753 97.4201879,70.5908728 C96.1025751,64.8874271 94.1862091,59.3379601 91.7027479,54.0341477 C91.4672892,53.509041 91.4672892,52.9089055 91.7027479,52.3837989 C91.8898502,52.132521 92.1515677,51.946269 92.4508242,51.8514283 C95.5499972,50.3607906 100.572795,47.8054118 102.76359,51.2125836 C103.7785,53.6735329 104.565474,56.2217703 105.114686,58.8254829 C106.060666,61.4714574 107.25953,64.0207949 108.694766,66.4383823 L108.694766,66.4383823 Z" id="路径" fill="#FFD0BB" fill-rule="nonzero"></path>
                        <path d="M103.811128,4.09338543 C108.204033,8.4552599 111.097221,14.1625529 112.055385,20.3565489 C112.055385,21.3323387 112.055385,22.6333917 111.315515,22.958655 C110.865857,23.0855765 110.39113,23.0855765 109.941473,22.958655 C103.71037,20.3500158 97.6853582,17.2507666 91.9203723,13.6886518 C88.3795696,11.4660195 80.6637906,4.74391196 87.2697658,1.22022655 C92.8663111,-1.13819112 99.2834861,-0.023557182 103.811128,4.09338543 L103.811128,4.09338543 Z" id="路径" fill="#17173F" fill-rule="nonzero"></path>
                        <path d="M194.158512,59.3596336 L211.702372,64.7076666 L235.450769,99.2559596 C236.159273,100.910992 235.678139,102.835276 234.274046,103.962229 L233.846147,103.962229 C232.648989,104.628742 231.192215,104.628742 229.995056,103.962229 L149.175626,29.9989325 L112.055385,44.7060232 L114.034418,47.5404807 L146.768694,36.0956901 L224.057957,125.19392 C232.402587,134.953996 246.736667,136.914851 257.396562,129.754532 C268.056457,122.594213 271.660142,108.584447 265.778113,97.1702267 L240.104171,45.4547478 L241.922742,26.4692308 L194.158512,59.3596336 Z" id="路径" fill="#FBCA0A" fill-rule="nonzero"></path>
                        <path d="M108.430766,99.3348168 C102.846597,96.0254567 95.71406,96.9784064 91.2000407,101.636945 C83.6314041,109.7747 91.5221103,119.143827 98.0171814,124.497613 C104.512252,129.8514 158.190526,158.815385 158.190526,158.815385 L198.449231,83.8623738 L190.504846,75.9923077 L152.178559,129.530173 L108.430766,99.3348168 Z" id="路径" fill="#FFD0BB" fill-rule="nonzero"></path>
                        <polygon id="路径" fill="#FFD0BB" fill-rule="nonzero" points="187.248619 85.8649038 190.150656 76.3125 187.67855 65.5860577 182.196923 60.6230769 190.795554 61.3168269 201.490101 70.2288462 202.726154 78.2870192 192.569021 91.3615385"></polygon>
                        <polygon id="路径" fill="#FFD0BB" fill-rule="nonzero" points="162.906051 34.1538462 155.68 39.477208 158.528224 44.0626781 167.705836 51.2307692 175.248356 44.4316239 175.353846 37.6851852 169.182693 35.0498575"></polygon>
                    </g>
                    <g id="编组-107" transform="translate(436.000000, 138.000000)">
                        <ellipse id="椭圆形" fill="url(#linearGradient-28)" opacity="0.5" cx="169" cy="557.148997" rx="169" ry="38.8510029"></ellipse>
                        <path d="M181.9765,79.4097421 C193.713716,80.4527729 204.898233,84.8748752 214.179283,92.1419864 C228.241165,103.853502 251.749197,155.265982 251.749197,155.265982 C252.1092,159.465662 250.227757,163.543647 246.800307,165.992587 C243.372857,168.441527 238.908508,168.897661 235.057421,167.192388 C218.204631,162.572249 187.128945,104.551895 187.128945,104.551895 C187.128945,104.551895 171.564266,90.637755 181.9765,79.4097421 Z" id="路径" fill="#FFD0BB" fill-rule="nonzero"></path>
                        <path d="M177.928856,78.5558739 C177.928856,78.5558739 203.546666,78.5558739 211.156978,85.475132 C218.767289,92.3943901 254.353535,137.450024 254.353535,137.450024 L220.160727,163.088825 L193.363855,120.82235 C193.363855,120.82235 171.283232,94.9153601 177.928856,78.5558739 Z" id="路径" fill="#4CDBC4" fill-rule="nonzero"></path>
                        <path d="M146.808081,75.1404011 L108.39899,80.5036217 C108.39899,80.5036217 123.395798,127.485434 123.665525,128.075388 C123.935251,128.665342 146.808081,75.1404011 146.808081,75.1404011 Z" id="路径" fill="#FFFFFF" fill-rule="nonzero"></path>
                        <path d="M154.7609,64.0401146 L154.7609,64.0401146 C145.988901,64.0401146 138.714561,55.7363949 138.447122,45.1290625 L134.86344,29.0573469 C134.748769,23.9471212 136.669884,19.0013856 140.20251,15.3123961 C143.735137,11.6234065 148.588644,9.49465839 153.691144,9.39628143 L153.691144,9.39628143 C158.78414,9.29584798 163.708278,11.2264152 167.379804,14.7630847 C171.05133,18.2997543 173.169338,23.1526725 173.267677,28.2537611 L170.325848,44.3254768 C170.539799,55.0935262 163.586386,63.7186803 154.7609,64.0401146 Z" id="路径" fill="#FFD0BB" fill-rule="nonzero"></path>
                        <polygon id="路径" fill="#FFD0BB" fill-rule="nonzero" points="166.439394 91.7857685 145.10101 92.217765 147.808927 51.5020895 162.106727 51.2320917"></polygon>
                        <path d="M173.708897,13.9118032 C174.109878,14.511076 174.347095,15.2049515 174.396959,15.9244245 C175.747799,24.0231107 174.718075,32.3400893 171.433,39.8640249 L170.797866,35.2561815 C170.442568,31.7367861 169.678788,28.2707864 168.521969,24.9282565 C168.055942,23.6177748 167.336547,22.4119722 166.404855,21.3796874 C164.639269,19.833932 162.439418,18.8720007 160.106443,18.6255741 C157.008876,18.0958799 153.878928,17.7773644 150.738215,17.6722272 C148.233638,17.4150411 145.715699,18.0122905 143.592957,19.3670661 C141.265376,21.7470594 139.874589,24.8878568 139.676297,28.212007 L137.453328,40.5525532 C137.453328,41.2410816 136.818194,42.0885011 136.288915,41.7707188 C136.123431,41.6155698 136.01211,41.4113433 135.971348,41.1881179 C135.612937,40.1943187 135.364457,39.1642028 135.230359,38.1162222 C134.70108,35.150254 134.22473,32.1313221 133.854235,29.1123902 C132.791091,23.852274 132.935875,18.4192163 134.277658,13.2232749 C134.816855,11.4666093 135.71841,9.84270944 136.924049,8.45654027 C139.356728,6.26850407 142.339359,4.78533293 145.551287,4.16647913 L159.047886,0.141236581 C159.630092,0.141236581 160.265226,-0.176545726 160.688649,0.141236581 C161.112072,0.459018887 160.688649,1.83607555 161.059144,2.73645875 C161.059144,4.48426144 163.440897,5.11982605 165.134587,5.11982605 C166.828278,5.11982605 168.839536,5.11982605 169.686381,6.81466502 C170.533227,8.50950399 169.686381,10.204343 170.586155,11.4225085 C171.485928,12.640674 172.809124,12.8525288 173.708897,13.9118032 Z" id="路径" fill="#17173F" fill-rule="nonzero"></path>
                        <polygon id="路径" fill="#FFD0BB" fill-rule="nonzero" points="113.791962 242.498567 85.3535354 396.17115 108.436326 531.959885 124.342565 530.032285 114.541751 400.026351 151.067189 274.357517 217.851969 528.640129 234.722222 528.211774 188.503084 242.498567"></polygon>
                        <polygon id="路径" fill="#0D439B" fill-rule="nonzero" points="196.388252 235.867012 151.368846 223.713467 102.548753 228.639133 81.9393939 396.968401 101.959914 520.859599 127.547639 520.859599 117.590909 396.968401 151.422377 284.802429 209.824484 516.415792 236.429293 512.507383"></polygon>
                        <path d="M158.491896,74.8248224 C144.434083,72.6803088 130.160235,77.0114497 119.673883,86.6034467 C114.729427,91.0540674 111.252321,96.8969405 109.7013,103.361217 C104.768624,125.472907 94.7424242,232.122996 94.7424242,232.122996 L96.2972894,232.711927 C128.946418,243.896027 163.965876,246.314704 197.84607,239.725563 L203.207674,238.654779 L208.086734,144.05101 C208.086734,144.05101 214.520658,93.617082 195.218884,83.7123298 C183.469979,78.9962468 171.09946,76.002724 158.491896,74.8248224 L158.491896,74.8248224 Z" id="路径" fill="#4CDBC4" fill-rule="nonzero"></path>
                        <path d="M188.272712,235.427108 C191.755465,233.522932 194.907551,231.064746 197.6063,228.148215 C212.326702,212.091832 210.246646,184.474855 192.859504,165.902972 C173.765648,145.457845 144.004835,142.781781 127.204376,159.587462 C124.833711,161.989626 122.805549,164.709302 121.177544,167.669174 C115.142642,178.462025 104.309384,185.689539 92.0567485,187.097397 C80.7632778,188.50843 70.2855035,193.737319 62.3492698,201.92279 C42.2420536,222.956651 44.4821148,259.725767 67.6827489,284.720202 C93.0167747,312.33718 132.911198,316.08367 155.311811,293.604734 C162.811469,285.983736 167.688696,276.157672 169.232191,265.559586 C170.51319,253.072828 177.563902,241.91476 188.272712,235.427108 Z" id="路径" fill="#FBCA0A" fill-rule="nonzero"></path>
                        <path d="M158.881869,229.043847 C153.179611,234.756511 144.868389,236.98756 137.07896,234.89658 C129.289531,232.8056 123.205294,226.71026 121.118122,218.906615 C119.030951,211.102971 121.257936,202.776582 126.960194,197.063918 C131.184466,192.80653 136.92905,190.412607 142.921032,190.412607 C148.913014,190.412607 154.657598,192.80653 158.881869,197.063918 C161.254799,199.359453 163.074298,202.166596 164.202149,205.2721 C167.250485,213.554612 165.16829,222.858149 158.881869,229.043847 L158.881869,229.043847 Z" id="路径" fill="#FFFFFF" fill-rule="nonzero"></path>
                        <ellipse id="椭圆形" fill="#17173F" fill-rule="nonzero" cx="142.540404" cy="213.467049" rx="16.2171717" ry="16.2234957"></ellipse>
                        <polygon id="矩形" fill="#17173F" fill-rule="nonzero" transform="translate(101.143036, 254.772908) rotate(45.000000) translate(-101.143036, -254.772908) " points="78.5545286 250.784643 123.72965 250.795383 123.731544 258.761174 78.5564224 258.750434"></polygon>
                        <path d="M250.939394,118.619912 L163.764923,205.782235 C162.634636,202.676125 160.811206,199.868434 158.433151,197.57245 C156.127469,195.206128 153.322164,193.384755 150.222222,192.241421 L237.396693,105.025788 L250.939394,118.619912 Z" id="路径" fill="#17173F" fill-rule="nonzero"></path>
                        <path d="M275.265355,87.0467898 L268.328005,79.8585416 C266.909673,78.3740361 264.922061,77.591003 262.886272,77.7147344 C260.850483,77.8384658 258.969559,78.8566212 257.736631,80.5022654 L238.989899,105.60749 L250.216755,116.979943 L274.8417,97.6145875 C276.383887,96.3332977 277.312294,94.4456982 277.393225,92.4269339 C277.474156,90.4081697 276.699901,88.4505299 275.265355,87.0467898 Z" id="路径" fill="#17173F" fill-rule="nonzero"></path>
                        <polygon id="路径" fill="#FFFFFF" fill-rule="nonzero" points="133.151515 559.094193 56.3333333 568.676218 59.1764644 561.313758 130.630248 549.891117"></polygon>
                        <polygon id="路径" fill="#06609E" fill-rule="nonzero" points="130.590909 549.731017 59.7474747 560.991404 61.3962334 556.61533 86.6594701 550.104585 107.61466 530.145415 124.846847 528.544413"></polygon>
                        <polygon id="路径" fill="#FFFFFF" fill-rule="nonzero" points="212.530303 559.021306 289.348485 559.283668 285.675266 552.514735 213.914414 549.891117"></polygon>
                        <polygon id="路径" fill="#06609E" fill-rule="nonzero" points="214.237374 549.795836 285.934343 552.452722 283.753649 548.361118 257.904445 544.907166 234.767812 527.690544 217.428634 528.168784"></polygon>
                        <path d="M115.527317,82.4624252 C115.527317,82.4624252 112.010961,73.5404502 94.8021317,86.2021752 C82.4948883,95.2310003 53.4583182,132.521651 37.9011101,153.036851 C35.3422051,156.407905 34.4100206,160.745113 35.3570173,164.873842 C36.3040141,169.002571 39.0321954,172.495574 42.8026962,174.406851 L131.51075,219.444126 L141.686869,206.675551 L64.9131119,163.935551 L111.531458,111.6859 C111.531458,111.6859 128.314063,95.9255253 115.527317,82.4624252 Z" id="路径" fill="#FFD0BB" fill-rule="nonzero"></path>
                        <polygon id="路径" fill="#FFD0BB" fill-rule="nonzero" points="130.213466 200.659026 154.768692 202.265936 163.025253 215.656858 155.68013 229.690544 136.11101 222.138064 120.348485 214.103511"></polygon>
                        <path d="M131.444444,78.7383537 C131.444444,78.7383537 112.308824,74.1223947 98.2262381,84.3741175 C84.1436528,94.6258402 60.6010101,122.26792 60.6010101,122.26792 L90.8624435,149.426934 L114.458837,118.1887 C114.458837,118.1887 131.55144,97.7389288 131.444444,78.7383537 Z" id="路径" fill="#4CDBC4" fill-rule="nonzero"></path>
                        <path d="M236.561863,175.190458 L214.237374,147.797371 L223.512282,139.180516 L250.851693,155.509987 C250.851693,155.509987 261.097231,173.009649 254.949908,180.403124 C248.802585,187.796598 236.561863,175.190458 236.561863,175.190458 Z" id="路径" fill="#FFD0BB" fill-rule="nonzero"></path>
                        <polygon id="路径" fill="#FFD0BB" fill-rule="nonzero" points="214.50674 147.719198 200.7447 139.073782 199.727273 130.695201 205.296348 124.077722 213.114472 121.249284 220.075815 131.815903 223.717133 139.073782 227.893939 147.719198"></polygon>
                    </g>
                </g>
            </g>
        </g>
    </g>
</svg>