<?xml version="1.0" encoding="UTF-8"?>
<!DOCTYPE svg PUBLIC "-//W3C//DTD SVG 1.1//EN" "http://www.w3.org/Graphics/SVG/1.1/DTD/svg11.dtd">
<!-- Creator: CorelDRAW -->
<svg xmlns="http://www.w3.org/2000/svg" xml:space="preserve" width="79.3748mm" height="79.3748mm" version="1.1" style="shape-rendering:geometricPrecision; text-rendering:geometricPrecision; image-rendering:optimizeQuality; fill-rule:evenodd; clip-rule:evenodd"
viewBox="0 0 7937.48 7937.48"
 xmlns:xlink="http://www.w3.org/1999/xlink">
 <defs>
  <style type="text/css">
   <![CDATA[
    .fil0 {fill:#609CC8}
    .fil1 {fill:white}
   ]]>
  </style>
 </defs>
 <g id="Camada_x0020_1">
  <metadata id="CorelCorpID_0Corel-Layer"/>
  <g id="_105553379397760">
   <path class="fil0" d="M3472.6 5192.93c196.25,22.3 1078.89,-25.79 1169.56,21.71 79.11,61.63 33.57,410.94 -243.52,531.97 -164.32,71.78 -620.77,36.83 -825.23,39.93 174.88,429.02 457.96,250.75 570.66,309.88 207.03,108.61 -285.84,252.51 -543.8,2.69 -112.57,-109.01 -173.69,-276.33 -128.8,-437.18 284.28,-96.63 1005.02,153.06 1076.82,-317.28 -1351.54,-17.67 -1146.73,120.81 -1245.31,-283.66 -23.52,-96.49 -48.53,-180.08 -79.92,-269.89 -251.09,-718.28 -601.47,-893.21 -675.45,-1437.99 -103.62,-763 397.06,-1484.29 1160.47,-1620.55 1290.27,-230.29 2152.59,1224.25 1445.06,2224.42 -100.5,142.06 -190.35,276.68 -268.39,432.17 -72.25,143.96 -146.31,388.56 -213.7,500.39 -201.95,36.92 -493.12,29.45 -646.21,-121.5 -214.41,-211.39 -94.94,-392.78 -159.98,-636.01 -116.13,-60.26 -162.56,-50.68 -275.53,-152.74 -175.38,-158.46 -229.36,-421.98 -71.98,-624.59 87.72,-112.92 166.24,-110.36 256.63,-185.15 22.18,-92.92 -17.14,-471.73 -0.27,-626.94 55.16,-507.43 518.23,-287.17 405.42,280.17 -35.6,179.05 -118.85,300.28 -253.26,417.78l9.33 151.17c214.91,14.8 347.55,106.21 374.38,328.82 28.06,232.96 -93.08,348.97 -295.68,416.09 14.73,153.16 -6.47,365.64 77.83,486.23 111.12,158.98 281.52,133.06 457.81,133.33 63.2,-54.05 158.4,-335.08 207.15,-432.2 240.98,-480.11 612.97,-757.19 477.84,-1433.68 -139.02,-695.97 -825.31,-1150.93 -1521.18,-1010.22 -694.54,140.44 -1142.47,812.38 -1012.76,1509.1 96.76,519.72 634.09,883.28 772.01,1803.73zm-3467.83 -1012.98c106.16,2201.25 1988.01,3854.22 4178.04,3752.3 2186.09,-101.74 3864.69,-2000.78 3749.04,-4176.42 -116.25,-2186.69 -1984.01,-3863.25 -4171.27,-3749.61 -2197.41,114.16 -3861.64,1979.24 -3755.81,4173.73z"/>
   <path class="fil1" d="M3821.86 3729.16c-46.35,-54.75 -41.35,-74.33 -3.76,-124.56 22.23,42.8 29.71,88.91 3.76,124.56zm131.98 -203.88c296.95,7.75 296.47,433.42 41.68,474.81l-9.35 -122.68c37.5,-37.56 99.25,-45.48 103.91,-94.87 -19.86,-93.35 -48.49,-71.57 -124.04,-67.36l-12.2 -189.9zm-95.31 454.66c-380.76,-71.72 -392.23,-604.45 -61.42,-654.45l6.26 111.03c-103.11,60.48 -164.76,158.73 -130.39,284.46 15.77,57.7 43.17,99.11 95.4,127.1 103.45,55.43 82.81,-6.12 90.15,131.86zm71.28 -925.5c-54.41,-64.2 -51.25,-576.34 31.39,-654.58 195.19,78.95 86.79,520.73 -31.39,654.58zm-457.21 2138.49c-137.92,-920.45 -675.25,-1284.01 -772.01,-1803.73 -129.71,-696.72 318.22,-1368.66 1012.76,-1509.1 695.87,-140.71 1382.16,314.25 1521.18,1010.22 135.13,676.49 -236.86,953.57 -477.84,1433.68 -48.75,97.12 -143.95,378.15 -207.15,432.2 -176.29,-0.27 -346.69,25.65 -457.81,-133.33 -84.3,-120.59 -63.1,-333.07 -77.83,-486.23 202.6,-67.12 323.74,-183.13 295.68,-416.09 -26.83,-222.61 -159.47,-314.02 -374.38,-328.82l-9.33 -151.17c134.41,-117.5 217.66,-238.73 253.26,-417.78 112.81,-567.34 -350.26,-787.6 -405.42,-280.17 -16.87,155.21 22.45,534.02 0.27,626.94 -90.39,74.79 -168.91,72.23 -256.63,185.15 -157.38,202.61 -103.4,466.13 71.98,624.59 112.97,102.06 159.4,92.48 275.53,152.74 65.04,243.23 -54.43,424.62 159.98,636.01 153.09,150.95 444.26,158.42 646.21,121.5 67.39,-111.83 141.45,-356.43 213.7,-500.39 78.04,-155.49 167.89,-290.11 268.39,-432.17 707.53,-1000.17 -154.79,-2454.71 -1445.06,-2224.42 -763.41,136.26 -1264.09,857.55 -1160.47,1620.55 73.98,544.78 424.36,719.71 675.45,1437.99 31.39,89.81 56.4,173.4 79.92,269.89 98.58,404.47 -106.23,265.99 1245.31,283.66 -71.8,470.34 -792.54,220.65 -1076.82,317.28 -44.89,160.85 16.23,328.17 128.8,437.18 257.96,249.82 750.83,105.92 543.8,-2.69 -112.7,-59.13 -395.78,119.14 -570.66,-309.88 204.46,-3.1 660.91,31.85 825.23,-39.93 277.09,-121.03 322.63,-470.34 243.52,-531.97 -90.67,-47.5 -973.31,0.59 -1169.56,-21.71z"/>
   <path class="fil0" d="M3929.81 3054.44c118.18,-133.85 226.58,-575.63 31.39,-654.58 -82.64,78.24 -85.8,590.38 -31.39,654.58z"/>
   <path class="fil0" d="M3858.53 3979.94c-7.34,-137.98 13.3,-76.43 -90.15,-131.86 -52.23,-27.99 -79.63,-69.4 -95.4,-127.1 -34.37,-125.73 27.28,-223.98 130.39,-284.46l-6.26 -111.03c-330.81,50 -319.34,582.73 61.42,654.45z"/>
   <path class="fil0" d="M3966.04 3715.18c75.55,-4.21 104.18,-25.99 124.04,67.36 -4.66,49.39 -66.41,57.31 -103.91,94.87l9.35 122.68c254.79,-41.39 255.27,-467.06 -41.68,-474.81l12.2 189.9z"/>
   <path class="fil0" d="M3821.86 3729.16c25.95,-35.65 18.47,-81.76 -3.76,-124.56 -37.59,50.23 -42.59,69.81 3.76,124.56z"/>
  </g>
 </g>
</svg>
